<svg width="25" height="24" viewBox="0 0 25 24" fill="none" xmlns="http://www.w3.org/2000/svg">
<path d="M17.3 9H13.25V15.25C13.25 15.66 12.91 16 12.5 16C12.09 16 11.75 15.66 11.75 15.25V9H7.7C4.5 9 2.5 11 2.5 14.2V16.79C2.5 20 4.5 22 7.7 22H17.29C20.49 22 22.49 20 22.49 16.8V14.2C22.5 11 20.5 9 17.3 9Z" fill="#191A23"/>
<path d="M13.2498 4.55994L15.3198 6.62994C15.4698 6.77994 15.6598 6.84994 15.8498 6.84994C16.0398 6.84994 16.2298 6.77994 16.3798 6.62994C16.6698 6.33994 16.6698 5.85994 16.3798 5.56994L13.0298 2.21994C12.7398 1.92994 12.2598 1.92994 11.9698 2.21994L8.61984 5.56994C8.32984 5.85994 8.32984 6.33994 8.61984 6.62994C8.90984 6.91994 9.38984 6.91994 9.67984 6.62994L11.7498 4.55994V8.99994H13.2498V4.55994Z" fill="#191A23"/>
</svg>
