<svg width="33" height="26" viewBox="0 0 33 26" fill="none" xmlns="http://www.w3.org/2000/svg">
<path d="M0 11.8121C0 12.4214 0.527243 12.937 1.39246 12.937C1.81155 12.937 2.17657 12.7495 2.50102 12.5035L4.05572 11.3785V22.2883C4.05572 24.0226 5.25891 25.0421 7.31381 25.0421H25.6051C27.66 25.0421 28.8632 24.0226 28.8632 22.2883V11.3082L30.5125 12.5035C30.837 12.7495 31.202 12.937 31.6211 12.937C32.4052 12.937 33 12.5152 33 11.8472C33 11.4488 32.8243 11.1324 32.4728 10.8863L28.8632 8.24971V3.26941C28.8632 2.74209 28.4711 2.40226 27.8628 2.40226H26.0377C25.4429 2.40226 25.0373 2.74209 25.0373 3.26941V5.46074L18.4129 0.63279C17.2503 -0.21093 15.7903 -0.21093 14.6141 0.63279L0.527243 10.8863C0.175748 11.1441 0 11.484 0 11.8121ZM20.3867 15.0581C20.3867 14.5073 19.9812 14.1557 19.3458 14.1557H13.6542C13.0324 14.1557 12.5998 14.5073 12.5998 15.0581V22.7453H8.0168C7.1651 22.7453 6.70545 22.3351 6.70545 21.5969V9.44498L15.939 2.74209C16.304 2.46085 16.7231 2.46085 17.0881 2.74209L26.2134 9.37467V21.5969C26.2134 22.3351 25.7538 22.7453 24.9021 22.7453H20.3867V15.0581Z" fill="#191A23"/>
</svg>
