<svg width="24" height="25" viewBox="0 0 24 25" fill="none" xmlns="http://www.w3.org/2000/svg">
<path d="M17 2.5H7C4.24 2.5 2 4.73 2 7.48V13.46V14.46C2 17.21 4.24 19.44 7 19.44H8.5C8.77 19.44 9.13 19.62 9.3 19.84L10.8 21.83C11.46 22.71 12.54 22.71 13.2 21.83L14.7 19.84C14.89 19.59 15.19 19.44 15.5 19.44H17C19.76 19.44 22 17.21 22 14.46V7.48C22 4.73 19.76 2.5 17 2.5ZM8 12.5C7.44 12.5 7 12.05 7 11.5C7 10.95 7.45 10.5 8 10.5C8.55 10.5 9 10.95 9 11.5C9 12.05 8.56 12.5 8 12.5ZM12 12.5C11.44 12.5 11 12.05 11 11.5C11 10.95 11.45 10.5 12 10.5C12.55 10.5 13 10.95 13 11.5C13 12.05 12.56 12.5 12 12.5ZM16 12.5C15.44 12.5 15 12.05 15 11.5C15 10.95 15.45 10.5 16 10.5C16.55 10.5 17 10.95 17 11.5C17 12.05 16.56 12.5 16 12.5Z" fill="#191A23"/>
</svg>
